#!OML:ASF E:\emotionWalksFemale\Project 1\Capture day 1\Session 1\Female1.ASF
:FULLY-SPECIFIED
:DEGREES
808
root 8.1842 15.6028 -38.2804 -168.627 -188.903 -179.331
lowerback 9.94847 2.95612 0.465246
upperback -2.87899 4.04872 0.333529
thorax -8.63704 1.95117 -0.605004
lowerneck -0.54973 -7.36282 -8.20266
upperneck -0.446139 -9.78475 5.55381
head 0.683442 -4.88286 3.06577
rclavicle 5.87409e-014 6.75868e-015
rhumerus -21.7842 11.8094 -79.6945
rradius 44.9869
rwrist 14.0609
rhand -9.74357 -54.029
rfingers 7.12502
rthumb 16.2306 636.63
lclavicle 5.87409e-014 6.75868e-015
lhumerus -60.0517 -16.7521 88.1206
lradius 32.6283
lwrist -26.4462
lhand 2.65504 -30.0396
lfingers 7.12502
lthumb 28.1309 -2.12974
rfemur -15.4124 9.22599 22.1106
rtibia 28.8196
rfoot -21.0685 -37.8303
rtoes 6.20536
lfemur -19.2447 -20.0141 -19.0862
ltibia 28.7071
lfoot -20.142 20.4775
ltoes -28.7221
809
root 8.2288 15.6058 -38.2849 -168.668 -188.42 -179.308
lowerback 10.049 3.04255 0.604136
upperback -2.88214 4.17972 0.284653
thorax -8.68407 2.00495 -0.762565
lowerneck -0.661577 -7.29945 -8.05551
upperneck -0.173794 -9.69679 5.37369
head 0.765142 -4.84007 2.97136
rclavicle 3.76697e-014 -7.55382e-015
rhumerus -21.3821 12.137 -80.5708
rradius 45.2222
rwrist 13.8296
rhand -10.253 -53.111
rfingers 7.12502
rthumb 15.74 637.509
lclavicle 3.76697e-014 -7.55382e-015
lhumerus -61.2729 -16.5412 89.2361
lradius 32.6661
lwrist -26.1598
lhand 3.86548 -30.295
lfingers 7.12502
lthumb 29.2873 -2.581
rfemur -15.4197 9.72496 21.8696
rtibia 28.8405
rfoot -21.723 -37.9658
rtoes 7.95952
lfemur -19.062 -19.8403 -19.3902
ltibia 28.596
lfoot -20.1449 20.729
ltoes -28.1914
810
root 8.27594 15.6055 -38.2852 -168.733 -188.013 -179.355
lowerback 10.0283 3.12207 0.642275
upperback -2.84021 4.30202 0.424821
thorax -8.63383 2.06726 -0.653939
lowerneck -0.911829 -7.28984 -7.97717
upperneck 0.17486 -9.66759 4.98111
head 0.890839 -4.82649 2.80998
rclavicle 9.13416e-014 1.59028e-014
rhumerus -21.0964 12.6541 -81.1905
rradius 45.6621
rwrist 13.6469
rhand -10.1835 -53.4842
rfingers 7.12502
rthumb 15.807 637.141
lclavicle 9.13416e-014 1.59028e-014
lhumerus -62.1273 -15.7873 90.1856
lradius 32.4954
lwrist -25.6554
lhand 7.13592 -30.0739
lfingers 7.12502
lthumb 32.4051 -2.95006
rfemur -15.3845 10.363 21.7159
rtibia 28.8683
rfoot -22.5107 -38.2498
rtoes 10.2188
lfemur -18.8621 -19.6416 -19.6351
ltibia 28.5202
lfoot -20.0218 20.9427
ltoes -28.6369
811
root 8.31965 15.6044 -38.2889 -168.647 -187.555 -179.407
lowerback 10.0336 3.17275 0.817698
upperback -2.90388 4.39416 0.41756
thorax -8.69128 2.10159 -0.777714
lowerneck -1.2228 -7.23295 -7.81498
upperneck 0.572513 -9.57443 4.76777
head 1.04476 -4.78067 2.69313
rclavicle -2.98177e-016 -2.62396e-014
rhumerus -20.9794 13.0601 -82.091
rradius 46.1721
rwrist 13.5417
rhand -10.1966 -53.5172
rfingers 7.12502
rthumb 15.7944 637.107
lclavicle -2.98177e-016 -2.62396e-014
lhumerus -62.9094 -14.8414 90.6651
lradius 32.3202
lwrist -25.0923
lhand 6.02305 -31.1466
lfingers 7.12502
lthumb 31.3453 -3.81153
rfemur -15.5706 11.0861 21.561
rtibia 28.9013
rfoot -23.2766 -38.6109
rtoes 12.644
lfemur -18.8572 -19.4055 -19.8139
ltibia 28.4664
lfoot -20.0392 20.9925
ltoes -28.0081
812
root 8.36058 15.6002 -38.2949 -168.596 -187.15 -179.514
lowerback 10.0166 3.20773 1.0609
upperback -2.93148 4.47221 0.397007
thorax -8.68988 2.12584 -0.94791
lowerneck -1.3698 -7.13189 -7.6
upperneck 0.768104 -9.43405 4.65145
head 1.10516 -4.71062 2.61191
rclavicle 4.96962e-015 -1.59028e-014
rhumerus -20.8952 13.4248 -83.0206
rradius 46.6436
rwrist 13.5298
rhand -10.5164 -51.8429
rfingers 7.12502
rthumb 15.4863 638.757
lclavicle 4.96962e-015 -1.59028e-014
lhumerus -63.6558 -13.8126 90.8624
lradius 32.3672
lwrist -24.2946
lhand 5.54547 -30.9347
lfingers 7.12502
lthumb 30.8901 -3.51235
rfemur -15.7185 11.6499 21.5506
rtibia 28.9407
rfoot -24.0219 -38.7694
rtoes 14.6508
lfemur -18.8605 -19.2878 -19.9062
ltibia 28.4325
lfoot -20.1645 21.0879
ltoes -26.4495
813
root 8.4022 15.5952 -38.2947 -168.61 -186.702 -179.727
lowerback 9.70397 3.24619 1.2881
upperback -2.81228 4.55579 0.521576
thorax -8.37062 2.1645 -0.931765
lowerneck -1.4582 -7.02737 -7.60011
upperneck 0.863181 -9.28732 4.53825
head 1.13502 -4.63797 2.57448
rclavicle -1.55052e-014 -1.59028e-014
rhumerus -20.7278 14.0393 -83.7421
rradius 47.1048
rwrist 13.6087
rhand -10.6814 -50.4729
rfingers 7.12502
rthumb 15.3274 640.115
lclavicle -1.55052e-014 -1.59028e-014
lhumerus -64.1393 -12.4216 90.8005
lradius 32.5942
lwrist -22.9907
lhand 7.20452 -30.6264
lfingers 7.12502
lthumb 32.4703 -3.51597
rfemur -15.7361 12.1994 21.7163
rtibia 28.9794
rfoot -25.0197 -38.7659
rtoes 16.3526
lfemur -18.8116 -19.2862 -19.9032
ltibia 28.4622
lfoot -20.3643 21.3231
ltoes -24.9668
